<?xml version='1.0' encoding='utf-8'?>
<svg xmlns="http://www.w3.org/2000/svg" enable-background="new 0 0 5042.966 2141.101" version="1.1" viewBox="0 0 5043 2141.1"> <g fill="none" stroke="#000" stroke-linecap="round" stroke-linejoin="round" stroke-miterlimit="10" stroke-width="20"> <path d="m2553.1 701.48c-14.851-67.954-35.041-148.26 5.79-209.6 18.154-27.272 44.6-45.526 73.708-60.193-6.6 42.158-1.005 87.353 15.095 126.62 28.182 68.726 86.957 120.69 159.41 137.53-84.667 3.699-169.33 5.577-254 5.648zm534.74 412.02c-43.363 0-82.15-19.57-108.03-50.353v-181.46c25.88-30.783 64.667-50.353 108.03-50.353 77.918 0 141.08 63.165 141.08 141.08s-63.165 141.08-141.08 141.08z"/> <path d="m21.483 1551.1h252.81l44.972-162.87 105.74 702.53 91.158-1119.4 63.203 687.94 64.419-105.74h721.18l46.127-167.05 108.46 720.57 93.5-1148.2 64.827 705.61 66.073-108.46h473.73c-30.197 0-59.173-11.917-80.632-33.162l-53.444-52.91c-10.288-10.186-3.075-27.723 11.402-27.723h334.3c-174.4-13.689-312.87-160.68-312.87-338.44v-360.31c0-29.713 24.311-54.024 54.024-54.024 49.978 3.184 99.956 5.724 149.93 7.643 28.648-35.337 36.085-83.141 15.4-124.54-12.965-25.949-41.924-48.063-60.395-72.053-9.975-12.956-17.842-26.948-23.858-42.137-14.624-36.921-14.299-79.324-0.412-116.36 14.396-38.394 41.94-69.25 61.147-105.02 11.673-22.987 21.779-48.323 16.138-74.52-5-23.222-20.877-44.125-44.35-50.532 27.101-2.405 50.516 17.172 62.239 40.203 11.647 22.883 11.982 49.119 6.327 73.773-11.603 50.585-47.482 90.629-61.821 140.06-9.122 30.29-3.554 71.516 13.004 98.688 20.446 33.791 51.937 61.123 64.573 99.391 15.737 47.659-1.747 105.82-44.439 133.19 75.718 2.862 151.44 4.284 227.15 4.246-34.648-69.986-63.333-154.75-23.171-228.56 25.938-47.674 70.621-73.31 117.67-95.222 1.441-5.566 2.735-11.167 3.658-16.844 0.668-4.109 1.075-8.225 1.213-12.383 0.01-0.284 0.021-1.13 0.035-1.459-2.587-59.646-56.795-96.257-101.73-126.51-34.454-23.195-69.92-47.547-92.336-83.417-18.882-30.712-28.824-68.806-13.578-103.04-6.45 48.996 25.626 91.452 63.846 118.28 34.56 24.258 73.961 40.579 108.78 64.453 34.023 26.314 63.477 54.811 76.414 97.191 4.14 13.562 5.082 27.283 4.037 40.948 10.608-4.904 21.038-9.951 31.097-15.357 5.368-2.885 12.841-7.155 17.117-9.926 25.298-16.66 49.03-37.648 60.708-66.332 13.672-33.583 4.139-70.103-15.391-99.269-37.382-55.825-104.44-78.933-163.56-103.93 81.44 11.53 171.51 35.879 211.38 115.65 18.448 36.907 19.931 79.249 1.974 116.52-20.767 43.108-60.081 72.879-102.04 93.742-16.669 8.288-34.78 15.559-53.092 23.009-7.772 27.922-12.839 55.791-11.01 85.244 1.778 28.64 8.45 60.843 21.941 85.868 25.753 50.812 65.244 88.818 115.17 115.55 38.531-1.703 77.062-3.778 115.59-6.232 29.713 0 54.024 24.311 54.024 54.024v52.468c31.444-19.291 68.436-30.421 108.03-30.421 114.26 0 206.89 92.627 206.89 206.89s-92.627 206.89-206.89 206.89c-40.767 0-78.775-11.798-110.81-32.156-20.352 157.84-150.21 282.62-310.3 295.08h334.51c14.477 0 21.69 17.537 11.402 27.723l-53.444 52.91c-21.277 21.064-49.943 32.958-79.862 33.159-0.257 2e-3 -0.513 3e-3 -0.77 3e-3l465.01 1.247 61.086 110.95 68.566-690.65 91.007 1118.3 108.46-703.12 44.88 159.57h231.88l465.49 1.248 61.15 111.07 68.638-691.37 91.102 1119.4 108.57-703.85 44.927 159.74h232.12"/> </g> </svg>